HIERARCHY
ROOT Hips
{
  OFFSET -8.84179 20.0128 0.897337
  CHANNELS 6 Xposition Yposition Zposition Zrotation Xrotation Yrotation
  JOINT Bip01_Pelvis
  {
    OFFSET 0 0 0
    CHANNELS 6 Xposition Yposition Zposition Zrotation Xrotation Yrotation
    JOINT BN_Tail_01
    {
      OFFSET -1.24087 -0.718302 0
      CHANNELS 6 Xposition Yposition Zposition Zrotation Xrotation Yrotation
      JOINT BN_Tail_02
      {
        OFFSET 6.82381 0 0
        CHANNELS 6 Xposition Yposition Zposition Zrotation Xrotation Yrotation
        JOINT BN_Tail_03
        {
          OFFSET 8.76082 0 0
          CHANNELS 6 Xposition Yposition Zposition Zrotation Xrotation Yrotation
          JOINT BN_Tail_04
          {
            OFFSET 7.66999 0 0
            CHANNELS 6 Xposition Yposition Zposition Zrotation Xrotation Yrotation
            End Site
            {
              OFFSET 0 0 0
            }
          }
        }
      }
    }
    JOINT Bip01_Spine
    {
      OFFSET 1.33812 0.096014 0.0297562
      CHANNELS 6 Xposition Yposition Zposition Zrotation Xrotation Yrotation
      JOINT Bip01_R_Thigh
      {
        OFFSET -1.30135 0.103306 -2.49297
        CHANNELS 6 Xposition Yposition Zposition Zrotation Xrotation Yrotation
        JOINT Bip01_R_Calf
        {
          OFFSET 8.39601 0 0
          CHANNELS 6 Xposition Yposition Zposition Zrotation Xrotation Yrotation
          JOINT Bip01_R_HorseLink
          {
            OFFSET 9.35807 0 0
            CHANNELS 6 Xposition Yposition Zposition Zrotation Xrotation Yrotation
            JOINT Bip01_R_Foot
            {
              OFFSET 4.27819 0 0
              CHANNELS 6 Xposition Yposition Zposition Zrotation Xrotation Yrotation
              JOINT Bip01_R_Toe0
              {
                OFFSET 1.32445 2.68719 0
                CHANNELS 6 Xposition Yposition Zposition Zrotation Xrotation Yrotation
                JOINT Bip01_R_Toe0Nub
                {
                  OFFSET 0.282271 0 0
                  CHANNELS 6 Xposition Yposition Zposition Zrotation Xrotation Yrotation
                  End Site
                  {
                    OFFSET 0 0 0
                  }
                }
              }
            }
          }
        }
      }
      JOINT Bip01_L_Thigh
      {
        OFFSET -1.37978 -0.0398788 2.39225
        CHANNELS 6 Xposition Yposition Zposition Zrotation Xrotation Yrotation
        JOINT Bip01_L_Calf
        {
          OFFSET 8.39601 0 0
          CHANNELS 6 Xposition Yposition Zposition Zrotation Xrotation Yrotation
          JOINT Bip01_L_HorseLink
          {
            OFFSET 9.35808 0 0
            CHANNELS 6 Xposition Yposition Zposition Zrotation Xrotation Yrotation
            JOINT Bip01_L_Foot
            {
              OFFSET 4.27819 0 0
              CHANNELS 6 Xposition Yposition Zposition Zrotation Xrotation Yrotation
              JOINT Bip01_L_Toe0
              {
                OFFSET 1.32445 2.68719 0
                CHANNELS 6 Xposition Yposition Zposition Zrotation Xrotation Yrotation
                JOINT Bip01_L_Toe0Nub
                {
                  OFFSET 0.282267 0 0
                  CHANNELS 6 Xposition Yposition Zposition Zrotation Xrotation Yrotation
                  End Site
                  {
                    OFFSET 0 0 0
                  }
                }
              }
            }
          }
        }
      }
      JOINT Bip01_Spine1
      {
        OFFSET 4.77812 -0.00598526 -2.03848e-005
        CHANNELS 6 Xposition Yposition Zposition Zrotation Xrotation Yrotation
        JOINT Bip01_Spine2
        {
          OFFSET 7.52904 -0.00557518 -8.38637e-005
          CHANNELS 6 Xposition Yposition Zposition Zrotation Xrotation Yrotation
          JOINT Bip01_Neck
          {
            OFFSET 8.17986 0.436998 0.000127075
            CHANNELS 6 Xposition Yposition Zposition Zrotation Xrotation Yrotation
            JOINT Bip01_R_Clavicle
            {
              OFFSET -2.1244 -3.91239 -2.44847
              CHANNELS 6 Xposition Yposition Zposition Zrotation Xrotation Yrotation
              JOINT Bip01_R_UpperArm
              {
                OFFSET 6.62478 0 0
                CHANNELS 6 Xposition Yposition Zposition Zrotation Xrotation Yrotation
                JOINT Bip01_R_Forearm
                {
                  OFFSET 7.46098 0 0
                  CHANNELS 6 Xposition Yposition Zposition Zrotation Xrotation Yrotation
                  JOINT Bip01_R_Hand
                  {
                    OFFSET 7.80543 0 0
                    CHANNELS 6 Xposition Yposition Zposition Zrotation Xrotation Yrotation
                    JOINT Bip01_R_Finger0
                    {
                      OFFSET 2.2294 0.674378 0.135623
                      CHANNELS 6 Xposition Yposition Zposition Zrotation Xrotation Yrotation
                      JOINT Bip01_R_Finger0Nub
                      {
                        OFFSET 3.57154 0 0
                        CHANNELS 6 Xposition Yposition Zposition Zrotation Xrotation Yrotation
                        End Site
                        {
                          OFFSET 0 0 0
                        }
                      }
                    }
                  }
                }
              }
            }
            JOINT Bip01_L_Clavicle
            {
              OFFSET -2.28998 -4.09919 1.94072
              CHANNELS 6 Xposition Yposition Zposition Zrotation Xrotation Yrotation
              JOINT Bip01_L_UpperArm
              {
                OFFSET 6.62478 0 0
                CHANNELS 6 Xposition Yposition Zposition Zrotation Xrotation Yrotation
                JOINT Bip01_L_Forearm
                {
                  OFFSET 7.46098 0 0
                  CHANNELS 6 Xposition Yposition Zposition Zrotation Xrotation Yrotation
                  JOINT Bip01_L_Hand
                  {
                    OFFSET 7.80543 0 0
                    CHANNELS 6 Xposition Yposition Zposition Zrotation Xrotation Yrotation
                    JOINT Bip01_L_Finger0
                    {
                      OFFSET 2.2294 0.674378 -0.135623
                      CHANNELS 6 Xposition Yposition Zposition Zrotation Xrotation Yrotation
                      JOINT Bip01_L_Finger0Nub
                      {
                        OFFSET 3.57153 0 0
                        CHANNELS 6 Xposition Yposition Zposition Zrotation Xrotation Yrotation
                        End Site
                        {
                          OFFSET 0 0 0
                        }
                      }
                    }
                  }
                }
              }
            }
            JOINT Bip01_Neck1
            {
              OFFSET 3.78076 -0.00285482 1.52588e-005
              CHANNELS 6 Xposition Yposition Zposition Zrotation Xrotation Yrotation
              JOINT Bip01_Head
              {
                OFFSET 3.62738 0 0
                CHANNELS 6 Xposition Yposition Zposition Zrotation Xrotation Yrotation
                JOINT BN_Beard_L
                {
                  OFFSET 6.36381 2.6665 1.018
                  CHANNELS 6 Xposition Yposition Zposition Zrotation Xrotation Yrotation
                  End Site
                  {
                    OFFSET 0 0 0
                  }
                }
                JOINT BN_Beard_R
                {
                  OFFSET 6.3638 2.6665 -1.01806
                  CHANNELS 6 Xposition Yposition Zposition Zrotation Xrotation Yrotation
                  End Site
                  {
                    OFFSET 0 0 0
                  }
                }
                JOINT BN_Mouth
                {
                  OFFSET 0.165208 0.881832 -2.79663e-005
                  CHANNELS 6 Xposition Yposition Zposition Zrotation Xrotation Yrotation
                  JOINT BN_Thouge_01
                  {
                    OFFSET 4.3022 0.00850105 0
                    CHANNELS 6 Xposition Yposition Zposition Zrotation Xrotation Yrotation
                    JOINT BN_Thouge_02
                    {
                      OFFSET 1.50253 0 0
                      CHANNELS 6 Xposition Yposition Zposition Zrotation Xrotation Yrotation
                      End Site
                      {
                        OFFSET 0 0 0
                      }
                    }
                  }
                }
                JOINT BN_Ear_L
                {
                  OFFSET 1.27954 -1.37165 2.10918
                  CHANNELS 6 Xposition Yposition Zposition Zrotation Xrotation Yrotation
                  End Site
                  {
                    OFFSET 0 0 0
                  }
                }
                JOINT BN_Ear_R
                {
                  OFFSET 1.27953 -1.37164 -2.1093
                  CHANNELS 6 Xposition Yposition Zposition Zrotation Xrotation Yrotation
                  End Site
                  {
                    OFFSET 0 0 0
                  }
                }
                JOINT Bip01_HeadNub
                {
                  OFFSET 7.94507 0 0
                  CHANNELS 6 Xposition Yposition Zposition Zrotation Xrotation Yrotation
                  End Site
                  {
                    OFFSET 0 0 0
                  }
                }
              }
            }
          }
        }
      }
    }
  }
}
MOTION
Frames:	4
Frame Time:	0.0333333
-5.95994 6.65193 9.37328e-008 120.18 -89.9999 -169.04 0 0 0 -87.5146 11.5253 -98.6939 -1.24088 -0.718302 2.5481e-006 -1.1238 30.1047 145.283 6.82381 9.53674e-007 2.86102e-006 -42.6391 7.09286 -59.8209 8.76082 5.00679e-006 2.86102e-006 -9.76342 -22.8361 -69.1357 7.66999 5.96047e-008 -5.32907e-015 -2.7324 1.40186 -26.056 1.33942 0.0444269 0.0595427 5.59156 -1.88083 10.4966 -1.35462 -0.108753 -2.49335 -134.636 -12.3182 169.606 8.39601 4.76837e-007 -1.77636e-015 -133.545 -3.81366e-006 1.41116e-006 9.35807 2.38419e-006 1.77636e-015 175.671 1.6827e-005 -8.49776e-006 4.2782 -4.44089e-016 1.77636e-015 -111.237 -16.208 -7.79157 1.32445 2.68719 -5.3523e-011 90 -1.73204e-005 -1.00237e-005 0.282265 -7.05771e-010 -8.88179e-016 4.72534e-008 3.69137e-008 2.93435e-009 -1.31697 -0.117268 2.39445 -141.232 9.55585 -169.64 8.39601 4.76837e-007 2.38419e-007 -136.969 1.30156e-005 -1.10378e-005 9.35807 -3.55272e-015 -2.22045e-015 168.272 -1.33217e-005 1.51164e-005 4.27819 2.38419e-007 -4.44089e-016 -107.308 6.86651 6.38062 1.32445 2.68719 -6.7543e-010 89.0865 0.0548529 -0.00374879 0.282265 -2.13718e-015 -1.77636e-015 -180 -2.00795e-006 -1.0121e-005 4.78009 -0.00552559 1.26809e-005 24.1489 -0.220554 0.785706 7.53427 -0.00374126 8.63522e-005 -0.345083 -0.215986 -3.07056 8.17902 0.438047 -1.77923e-005 -55.9796 -3.49388 2.69646 -0.248731 -4.58593 -2.17214 -106.956 -75.2578 170.975 6.62478 4.76837e-007 -1.90735e-006 79.6505 7.23274 -101.146 7.46098 -4.76837e-007 -1.19209e-007 -109.316 1.68377e-005 2.89961e-006 7.80543 -2.38419e-007 1.19209e-007 -3.06304 -9.98454 -6.59324 2.2294 0.674378 0.135623 3.94441 5.33406 3.22178 3.57153 1.19209e-007 -1.19209e-007 -180 -1.00703e-005 2.17708e-007 -0.247406 -4.56107 2.22406 -141.678 75.7904 -133.84 6.62478 -1.77636e-015 5.32907e-015 73.6164 15.1421 99.8853 7.46098 -1.77636e-015 1.19209e-007 -121.949 -5.35968e-006 4.06585e-005 7.80544 2.38419e-007 -1.77636e-015 -10.7662 -6.82329 -4.10346 2.2294 0.674378 -0.135623 -5.41066 6.67118 1.85799 3.57153 1.19209e-007 -1.19209e-007 6.15919e-008 4.67244e-008 -1.27438e-007 3.78079 -0.00284995 7.6294e-006 -8.80743 5.71191 -3.66306 3.62738 -5.32907e-015 0 66.9447 4.03488 15.9221 6.3638 2.6665 1.018 66.2204 -21.882 -106.198 6.3638 2.6665 -1.01806 -107.419 -31.7793 79.902 0.165206 0.881834 -2.79248e-005 -147.595 0.146667 -179.865 4.30221 0.00849915 1.5392e-010 15.0149 -2.10104e-005 -1.24983e-005 1.50253 1.90735e-006 8.88179e-016 11.687 -1.44293e-005 1.31495e-005 1.27954 -1.37165 2.10918 -124.377 -54.9744 -59.468 1.27953 -1.37165 -2.1093 39.2265 -52.3526 116.355 7.94507 -5.72205e-006 0 -3.34797e-007 -4.54541e-012 1.7986e-012 
-5.96036 6.65992 9.40972e-008 121.549 -89.9999 -167.721 0 0 0 -87.4975 11.5362 -98.6963 -1.24088 -0.718302 2.5481e-006 0.529882 26.4606 143.079 6.82381 9.53674e-007 2.86102e-006 -44.0422 7.59271 -59.5657 8.76082 5.00679e-006 2.86102e-006 -8.9622 -26.9058 -72.1448 7.66999 5.96046e-008 -3.55271e-015 0.412232 1.15778 -28.1509 1.33942 0.0444269 0.0595427 5.67924 -1.88468 10.4988 -1.35462 -0.108753 -2.49335 -134.63 -12.32 169.604 8.39601 4.76837e-007 -1.33227e-015 -133.469 -3.21131e-006 1.98543e-006 9.35807 2.38419e-006 2.66454e-015 175.672 1.60811e-005 1.35649e-006 4.2782 -1.33227e-015 2.22045e-015 -111.282 -16.2145 -7.78374 1.32445 2.68719 -5.3686e-011 90 -1.73204e-005 -1.00237e-005 0.282265 -7.05774e-010 -1.77636e-015 4.72534e-008 3.69137e-008 2.93435e-009 -1.31697 -0.117268 2.39445 -141.217 9.55932 -169.64 8.39601 4.76837e-007 2.38419e-007 -136.887 6.53701e-006 -1.79589e-005 9.35807 -6.66134e-015 -8.88178e-016 168.279 -7.77104e-006 -1.1632e-005 4.27819 2.38419e-007 4.44089e-016 -107.356 6.8719 6.37626 1.32445 2.68719 -6.76655e-010 89.0865 0.0548529 -0.00374879 0.282265 1.19349e-015 -4.44089e-016 -180 -2.00795e-006 -1.0121e-005 4.78009 -0.00552559 1.26809e-005 23.8579 -0.206717 0.779479 7.53427 -0.00374126 8.63522e-005 0.0818621 -0.252926 -3.06322 8.17902 0.438047 -1.77923e-005 -56.1553 -3.45079 2.67618 -0.248731 -4.58593 -2.17214 -106.98 -75.252 170.667 6.62478 4.76837e-007 -1.90735e-006 79.6813 7.58269 -101.132 7.46098 -4.76837e-007 -1.19209e-007 -109.249 -4.64926e-007 -3.16579e-006 7.80543 -2.38419e-007 1.19209e-007 -3.00443 -10.0012 -6.57826 2.2294 0.674378 0.135623 3.89606 5.35613 3.22288 3.57153 1.19209e-007 -1.19209e-007 -180 -1.00703e-005 2.17708e-007 -0.247406 -4.56107 2.22406 -141.349 75.8246 -133.949 6.62478 1.77636e-015 1.77636e-015 73.6746 14.8593 99.8295 7.46098 -8.88179e-016 1.19209e-007 -121.863 -5.318e-006 4.06701e-005 7.80544 2.38419e-007 -2.66454e-015 -10.8142 -6.81528 -4.11711 2.2294 0.674378 -0.135623 -5.34966 6.66592 1.84446 3.57153 1.19209e-007 -1.19209e-007 6.15919e-008 4.67244e-008 -1.27438e-007 3.78079 -0.00284995 7.6294e-006 -9.03015 5.3762 -3.50196 3.62738 1.77636e-015 -4.44089e-016 68.2435 3.52601 15.4369 6.3638 2.6665 1.018 65.9541 -22.0095 -106.915 6.3638 2.6665 -1.01806 -107.152 -31.6905 79.3908 0.165206 0.881834 -2.79244e-005 -146.495 0.167968 -179.845 4.30221 0.00849915 1.56361e-010 15.0149 -2.10415e-005 -1.25026e-005 1.50253 1.90735e-006 -2.66454e-015 11.687 -1.44569e-005 1.314e-005 1.27954 -1.37165 2.10918 -123.689 -54.6283 -58.8986 1.27953 -1.37165 -2.1093 38.5344 -52.6744 115.827 7.94507 -5.72205e-006 -3.55271e-015 -3.34797e-007 -4.54342e-012 1.79701e-012 
-5.96096 6.66908 9.45147e-008 120.234 -89.9999 -169.09 0 0 0 -87.478 11.5486 -98.699 -1.24088 -0.718302 2.5481e-006 1.75831 23.1405 141.172 6.82381 9.53674e-007 2.86102e-006 -45.0351 8.19107 -59.3019 8.76082 5.00679e-006 2.86102e-006 -8.66752 -30.1605 -74.8393 7.66999 5.96046e-008 -7.10543e-015 3.92788 0.310362 -30.6019 1.33942 0.0444269 0.0595427 5.77008 -1.89031 10.5011 -1.35462 -0.108753 -2.49335 -134.617 -12.3217 169.602 8.39601 4.76837e-007 -1.33227e-015 -133.382 -8.07593e-006 -2.60996e-006 9.35807 2.38419e-006 3.55271e-015 175.671 1.61177e-005 8.73163e-007 4.2782 8.88179e-016 -8.88179e-016 -111.331 -16.2216 -7.77498 1.32445 2.68719 -5.38982e-011 90 -1.73204e-005 -1.00237e-005 0.282265 -7.05772e-010 0 4.72534e-008 3.69137e-008 2.93435e-009 -1.31697 -0.117268 2.39445 -141.193 9.56356 -169.641 8.39601 4.76837e-007 2.38419e-007 -136.794 6.50823e-006 -1.79683e-005 9.35807 -6.21725e-015 -1.33227e-015 168.285 -9.48487e-006 -3.3776e-006 4.27819 2.38419e-007 0 -107.408 6.87786 6.37134 1.32445 2.68719 -6.77611e-010 89.0865 0.0548529 -0.00374879 0.282265 2.10943e-015 0 -180 -2.00795e-006 -1.0121e-005 4.78009 -0.00552559 1.26809e-005 23.5669 -0.192573 0.773281 7.53427 -0.00374126 8.63522e-005 0.511239 -0.289917 -3.05545 8.17902 0.438047 -1.77923e-005 -56.3157 -3.40276 2.6523 -0.248731 -4.58593 -2.17214 -107.039 -75.2495 170.339 6.62478 4.76837e-007 -1.90735e-006 79.7129 7.93522 -101.117 7.46098 -4.76837e-007 -1.19209e-007 -109.162 1.68551e-005 2.85269e-006 7.80543 -2.38419e-007 1.19209e-007 -2.96026 -10.0172 -6.56319 2.2294 0.674378 0.135623 3.84622 5.37895 3.22403 3.57153 1.19209e-007 -1.19209e-007 -180 -1.00703e-005 2.17708e-007 -0.247406 -4.56107 2.22406 -141.009 75.8588 -134.086 6.62478 0 1.59872e-014 73.7342 14.5701 99.7735 7.46098 -1.77636e-015 1.19209e-007 -121.755 -2.84914e-005 2.6305e-005 7.80544 2.38419e-007 -1.77636e-015 -10.8758 -6.80817 -4.13095 2.2294 0.674378 -0.135623 -5.28684 6.66049 1.83053 3.57153 1.19209e-007 -1.19209e-007 6.15919e-008 4.67244e-008 -1.27438e-007 3.78079 -0.00284995 7.6294e-006 -9.27701 5.00893 -3.32475 3.62738 0 -6.66134e-016 69.5087 2.94732 14.9106 6.3638 2.6665 1.018 65.679 -22.1508 -107.696 6.3638 2.6665 -1.01806 -106.879 -31.5622 78.8308 0.165206 0.881834 -2.79241e-005 -145.356 0.187194 -179.824 4.30221 0.00849915 1.58879e-010 15.0149 -2.10708e-005 -1.25069e-005 1.50253 1.90735e-006 -3.55271e-015 11.687 -1.44837e-005 1.31307e-005 1.27954 -1.37165 2.10918 -123.095 -54.2909 -58.3847 1.27953 -1.37165 -2.1093 37.9009 -52.9733 115.291 7.94507 -5.72205e-006 -3.55271e-015 -3.34797e-007 -4.54223e-012 1.79542e-012 
-5.96174 6.67911 9.49711e-008 121.605 -89.9999 -167.777 0 0 0 -87.4565 11.5622 -98.7021 -1.24088 -0.718302 2.5481e-006 2.38789 20.769 140.06 6.82381 9.53674e-007 2.86102e-006 -45.2132 8.88433 -59.0689 8.76082 5.00679e-006 2.86102e-006 -8.55716 -32.0719 -75.2941 7.66999 5.96046e-008 -7.10543e-015 7.42801 -1.35923 -33.2862 1.33942 0.0444269 0.0595427 5.8629 -1.89766 10.5035 -1.35462 -0.108753 -2.49335 -134.599 -12.3234 169.599 8.39601 4.76837e-007 -2.66454e-015 -133.289 -1.00239e-005 -4.42772e-006 9.35807 2.38419e-006 2.66454e-015 175.669 1.60997e-005 1.11076e-006 4.2782 8.88179e-016 8.88179e-016 -111.383 -16.2292 -7.76562 1.32445 2.68719 -5.41261e-011 90 -1.73204e-005 -1.00237e-005 0.282265 -7.05766e-010 -4.44089e-016 4.72534e-008 3.69137e-008 2.93435e-009 -1.31697 -0.117268 2.39445 -141.163 9.56793 -169.642 8.39601 4.76837e-007 2.38419e-007 -136.694 6.47698e-006 -1.79785e-005 9.35807 -3.10863e-015 -1.77636e-015 168.289 -7.7754e-006 -1.16308e-005 4.27819 2.38419e-007 0 -107.464 6.88419 6.36606 1.32445 2.68719 -6.78957e-010 89.0865 0.0548529 -0.00374879 0.282265 -1.66534e-016 -4.44089e-016 -180 -2.00795e-006 -1.0121e-005 4.78009 -0.00552559 1.26809e-005 23.2858 -0.178599 0.767257 7.53427 -0.00374126 8.63522e-005 0.925111 -0.325907 -3.04747 8.17902 0.438047 -1.77923e-005 -56.4541 -3.34959 2.62494 -0.248731 -4.58593 -2.17214 -107.141 -75.2504 169.99 6.62478 4.76837e-007 -1.90735e-006 79.7436 8.28134 -101.103 7.46098 -4.76837e-007 -1.19209e-007 -109.06 -4.44693e-006 -4.54115e-006 7.80543 -2.38419e-007 1.19209e-007 -2.92618 -10.0328 -6.54803 2.2294 0.674378 0.135623 3.79519 5.40228 3.22523 3.57153 1.19209e-007 -1.19209e-007 -180 -1.00703e-005 2.17708e-007 -0.247406 -4.56107 2.22406 -140.665 75.8928 -134.252 6.62478 8.88179e-016 1.77636e-015 73.7923 14.2855 99.7193 7.46098 -1.06581e-014 1.19209e-007 -121.633 -2.2004e-005 3.0342e-005 7.80544 2.38419e-007 8.88179e-016 -10.948 -6.80168 -4.14488 2.2294 0.674378 -0.135623 -5.22267 6.65491 1.81632 3.57153 1.19209e-007 -1.19209e-007 6.15919e-008 4.67244e-008 -1.27438e-007 3.78079 -0.00284995 7.6294e-006 -9.53645 4.61384 -3.13278 3.62738 5.32907e-015 9.99201e-016 70.6742 2.30169 14.3498 6.3638 2.6665 1.018 65.4052 -22.2956 -108.514 6.3638 2.6665 -1.01806 -106.61 -31.3996 78.2452 0.165206 0.881834 -2.79237e-005 -144.191 0.213637 -179.804 4.30221 0.00849915 1.61522e-010 15.0149 -2.10973e-005 -1.25116e-005 1.50253 1.90735e-006 -8.88179e-016 11.687 -1.45089e-005 1.31219e-005 1.27954 -1.37165 2.10918 -122.613 -53.9705 -57.9364 1.27953 -1.37165 -2.1093 37.3472 -53.2416 114.756 7.94507 -5.72205e-006 -7.99361e-015 -3.34797e-007 -4.54342e-012 1.79383e-012 
